<svg width="12" height="12" viewBox="0 0 12 12" fill="none" xmlns="http://www.w3.org/2000/svg">
<path d="M7.9997 8.53043L9.03358 7.49655C9.17197 7.35813 9.34794 7.26335 9.53967 7.22397C9.73141 7.18459 9.93049 7.20234 10.1122 7.275L11.3714 7.77902C11.5569 7.85327 11.716 7.98143 11.8281 8.14695C11.9401 8.31248 12 8.50778 12 8.70767V10.9974C12.0003 11.1335 11.9729 11.2683 11.9193 11.3934C11.8658 11.5185 11.7872 11.6314 11.6886 11.7251C11.5899 11.8188 11.4731 11.8914 11.3454 11.9384C11.2177 11.9854 11.0817 12.0059 10.9458 11.9985C2.11994 11.4493 0.337416 3.97398 0.00648124 1.11142C-0.00954691 0.971479 0.00423474 0.829726 0.0469199 0.69549C0.089605 0.561253 0.160226 0.437574 0.254139 0.332588C0.348051 0.227602 0.463126 0.143688 0.591795 0.0863655C0.720464 0.0290428 0.859812 -0.00038975 1.00067 3.89709e-06H3.24983C3.44972 -2.52128e-06 3.64502 0.0598819 3.81054 0.171932C3.97607 0.283983 4.10423 0.443058 4.17848 0.628639L4.68204 1.88776C4.75471 2.0695 4.77245 2.26858 4.73307 2.46031C4.69369 2.65205 4.59891 2.82802 4.46049 2.96641L3.42661 4.00029C3.42661 4.00029 3.99986 8.03057 7.9997 8.53043Z" fill="black"/>
<path fill-rule="evenodd" clip-rule="evenodd" d="M10.9692 4.50099C11.0033 4.77502 11.2239 5 11.5 5C11.7761 5 12.0026 4.7755 11.9754 4.5007C11.7411 2.13793 9.86207 0.258874 7.4993 0.0246181C7.2245 -0.00262628 7 0.223858 7 0.5C7 0.776142 7.22498 0.996722 7.49901 1.03082C9.30917 1.25609 10.7439 2.69084 10.9692 4.50099Z" fill="black"/>
<path fill-rule="evenodd" clip-rule="evenodd" d="M8.96451 4.53036C9.03179 4.79819 9.24931 5.02545 9.52545 5.02545C9.8016 5.02545 10.0298 4.79995 9.98467 4.52751C9.77404 3.25552 8.76994 2.25141 7.49794 2.04078C7.22551 1.99567 7 2.22386 7 2.5C7 2.77614 7.22727 2.99366 7.49509 3.06094C8.21595 3.24204 8.78341 3.8095 8.96451 4.53036Z" fill="black"/>
</svg>
