<svg width="12" height="12" viewBox="0 0 12 12" fill="none" xmlns="http://www.w3.org/2000/svg">
<path d="M10.8 1H1.2C0.54 1 0.00599999 1.5625 0.00599999 2.25L0 9.75C0 10.4375 0.54 11 1.2 11H10.8C11.46 11 12 10.4375 12 9.75V2.25C12 1.5625 11.46 1 10.8 1ZM10.8 3.216C10.8 3.39315 10.7105 3.5583 10.562 3.65495L7.63681 5.55937C6.64175 6.20719 5.35825 6.20719 4.36319 5.55937L1.438 3.65495C1.28954 3.5583 1.2 3.39315 1.2 3.216C1.2 2.80024 1.66113 2.55021 2.00955 2.77705L4.74766 4.55968C5.50899 5.05533 6.49101 5.05533 7.25234 4.55968L9.99045 2.77705C10.3389 2.55021 10.8 2.80024 10.8 3.216Z" fill="black"/>
</svg>
