<svg width="189" height="38" viewBox="0 0 189 38" fill="none" xmlns="http://www.w3.org/2000/svg">
<path d="M0 18.9965C0 8.505 8.42173 0 18.8104 0H27.7678C28.9221 0 29.8578 0.945003 29.8578 2.11072C29.8578 3.27644 28.9221 4.22144 27.7678 4.22144H18.8104C10.7303 4.22144 4.18009 10.8365 4.18009 18.9965C4.18009 27.1565 10.7303 33.7714 18.8104 33.7714H27.7678C28.9221 33.7714 29.8578 34.7166 29.8578 35.8823C29.8578 37.0479 28.9221 37.9931 27.7678 37.9931H18.8104C8.42173 37.9931 0 29.4879 0 18.9965Z" fill="white"/>
<path d="M11.9431 16.2827C11.2835 16.2827 10.7488 16.8227 10.7488 17.4888V20.5041C10.7488 21.1703 11.2835 21.7103 11.9431 21.7103C12.6027 21.7103 13.1374 21.1703 13.1374 20.5041V17.4888C13.1374 16.8227 12.6027 16.2827 11.9431 16.2827Z" fill="white"/>
<path d="M14.9289 15.3781C14.9289 14.712 15.4636 14.172 16.1232 14.172C16.7828 14.172 17.3175 14.712 17.3175 15.3781V22.6149C17.3175 23.281 16.7828 23.821 16.1232 23.821C15.4636 23.821 14.9289 23.281 14.9289 22.6149V15.3781Z" fill="white"/>
<path d="M20.3033 12.212C19.6437 12.212 19.109 12.752 19.109 13.4182V24.5748C19.109 25.2409 19.6437 25.781 20.3033 25.781C20.9629 25.781 21.4976 25.2409 21.4976 24.5748V13.4182C21.4976 12.752 20.9629 12.212 20.3033 12.212Z" fill="white"/>
<path d="M23.2891 16.8858C23.2891 16.2196 23.8238 15.6796 24.4834 15.6796C25.143 15.6796 25.6777 16.2196 25.6777 16.8858V21.1072C25.6777 21.7733 25.143 22.3133 24.4834 22.3133C23.8238 22.3133 23.2891 21.7733 23.2891 21.1072V16.8858Z" fill="white"/>
<path d="M28.6635 17.7904C28.0039 17.7904 27.4692 18.3303 27.4692 18.9965C27.4692 19.6626 28.0039 20.2026 28.6635 20.2026C29.3231 20.2026 29.8578 19.6626 29.8578 18.9965C29.8578 18.3303 29.3231 17.7904 28.6635 17.7904Z" fill="white"/>
<path d="M39.4123 2.11072C39.4123 0.945003 40.3481 0 41.5024 0C42.6567 0 43.5924 0.945003 43.5924 2.11072V16.2826C43.5924 16.6157 43.8596 16.8858 44.1896 16.8858H57.327C57.6569 16.8858 57.9242 16.6157 57.9242 16.2826V2.11072C57.9242 0.945003 58.8599 0 60.0142 0C61.1685 0 62.1043 0.945003 62.1043 2.11072V35.8823C62.1043 37.0479 61.1685 37.9931 60.0142 37.9931C58.8599 37.9931 57.9242 37.0479 57.9242 35.8823V21.7104C57.9242 21.3773 57.6569 21.1072 57.327 21.1072H44.1896C43.8596 21.1072 43.5924 21.3773 43.5924 21.7104V35.8823C43.5924 37.0479 42.6567 37.9931 41.5024 37.9931C40.3481 37.9931 39.4123 37.0479 39.4123 35.8823V2.11072Z" fill="white"/>
<path fill-rule="evenodd" clip-rule="evenodd" d="M113.161 20.2026H110.974C110.442 20.2026 110.176 20.8515 110.551 21.2317L123.553 34.3987C124.368 35.2242 124.366 36.5608 123.549 37.3839C122.731 38.2069 121.408 38.2051 120.593 37.3796L105.522 22.1175C105.146 21.7367 104.502 22.0057 104.502 22.5434V35.8823C104.502 37.0479 103.567 37.9931 102.412 37.9931C101.258 37.9931 100.322 37.0479 100.322 35.8823V3.01531C100.322 1.35 101.659 0 103.308 0H113.161C118.603 0 123.014 4.45502 123.014 9.95054V10.2521C123.014 15.7476 118.603 20.2026 113.161 20.2026ZM105.1 4.22144C104.77 4.22144 104.502 4.49148 104.502 4.82461V15.378C104.502 15.7111 104.77 15.9812 105.1 15.9812H113.161C116.294 15.9812 118.834 13.4162 118.834 10.2521V9.95054C118.834 6.78644 116.294 4.22144 113.161 4.22144H105.1Z" fill="white"/>
<path d="M136.152 0.301529C137.306 0.301529 138.242 1.24653 138.242 2.41225V2.56302C138.242 3.64546 137.373 4.52296 136.301 4.52296C135.229 4.52296 134.36 5.40046 134.36 6.48292V25.3286C134.36 29.9915 138.103 33.7714 142.72 33.7714C147.338 33.7714 151.081 29.9915 151.081 25.3286V6.48292C151.081 5.40046 150.212 4.52296 149.14 4.52296C148.068 4.52296 147.199 3.64546 147.199 2.56302V2.41225C147.199 1.24653 148.135 0.301529 149.289 0.301529H151.081C153.389 0.301529 155.261 2.19153 155.261 4.52296V25.3286C155.261 32.3229 149.646 37.9931 142.72 37.9931C135.795 37.9931 130.18 32.3229 130.18 25.3286V4.52296C130.18 2.19153 132.052 0.301529 134.36 0.301529H136.152Z" fill="white"/>
<path d="M176.161 3.86813C178.137 3.86813 179.835 4.42549 181.101 5.71354C181.268 5.88125 181.425 6.0594 181.572 6.24804C181.715 6.4318 181.854 6.61278 181.989 6.79006L181.99 6.79036C182.52 7.48316 183.007 8.1193 183.547 8.64331C184.204 9.28038 184.79 9.59633 185.393 9.59633C186.067 9.59633 186.663 9.2676 187.017 8.81754C187.348 8.3952 187.461 7.89172 187.288 7.33777C187.062 6.61833 186.762 5.93219 186.386 5.27787L186.381 5.27045C185.453 3.63316 184.136 2.34963 182.387 1.42891L182.38 1.42521C180.628 0.485963 178.602 0 176.28 0C173.962 0 171.905 0.445333 170.089 1.31129C168.292 2.17575 166.968 3.35024 166.054 4.80504C165.158 6.23734 164.707 7.86693 164.707 9.73907C164.707 13.2394 166.326 16.1222 169.978 18.3853C171.33 19.2202 173.206 20.0966 175.634 21.0072C178.105 21.9155 179.97 22.8372 181.084 23.8149C182.355 24.9112 182.956 26.502 182.956 28.3896C182.956 30.1973 182.324 31.7041 181.069 32.7599L181.059 32.7681C179.85 33.7618 178.269 34.1792 176.446 34.1792C173.401 34.1792 170.965 33.2521 169.601 30.9745C169.046 30.0484 168.488 29.1897 167.869 28.5619C167.262 27.9463 166.681 27.6365 166.067 27.6365C165.388 27.6365 164.787 27.9655 164.426 28.4223C164.084 28.8539 163.962 29.3749 164.128 29.9462C164.374 30.7887 164.714 31.5798 165.149 32.322C166.163 34.0251 167.648 35.41 169.664 36.4495C171.681 37.4713 173.936 37.9931 176.446 37.9931C180.104 37.9931 182.876 37.0654 184.877 35.3493C186.829 33.6568 187.806 31.3678 187.806 28.3353C187.806 25.5977 186.998 23.3718 185.382 21.5657C183.725 19.7139 180.983 18.0626 177.019 16.6951L177.017 16.6947C174.779 15.919 172.993 15.0601 171.722 14.0884L171.716 14.0837C170.357 13.0302 169.533 11.5827 169.533 9.76621C169.533 7.97689 170.184 6.48781 171.427 5.41054C172.657 4.32597 174.282 3.86813 176.161 3.86813Z" fill="white"/>
<path fill-rule="evenodd" clip-rule="evenodd" d="M69.8673 11.7597C69.8673 5.43152 74.947 0.301529 81.2133 0.301529C87.4795 0.301529 92.5592 5.43152 92.5592 11.7597V26.5348C92.5592 32.8631 87.4795 37.9931 81.2133 37.9931C74.947 37.9931 69.8673 32.8631 69.8673 26.5348V11.7597ZM88.3791 11.7597V26.5348C88.3791 30.5315 85.1709 33.7714 81.2133 33.7714C77.2556 33.7714 74.0474 30.5315 74.0474 26.5348V11.7597C74.0474 7.76298 77.2556 4.52296 81.2133 4.52296C85.1709 4.52296 88.3791 7.76298 88.3791 11.7597Z" fill="white"/>
</svg>
