<svg width="12" height="12" viewBox="0 0 12 12" fill="none" xmlns="http://www.w3.org/2000/svg">
<g clip-path="url(#clip0)">
<path d="M12 2.18618C11.5587 2.38663 11.0846 2.52207 10.5863 2.58329C11.1005 2.26788 11.4852 1.77145 11.6686 1.18664C11.1855 1.48081 10.6567 1.68787 10.1053 1.79883C9.73454 1.39298 9.2434 1.12398 8.70818 1.03358C8.17295 0.943192 7.62359 1.03647 7.14537 1.29892C6.66716 1.56138 6.28685 1.97834 6.0635 2.48507C5.84015 2.9918 5.78624 3.55994 5.91016 4.10129C4.93122 4.0509 3.97355 3.79008 3.09932 3.33574C2.22508 2.8814 1.4538 2.2437 0.83555 1.46402C0.624152 1.83783 0.502598 2.27124 0.502598 2.73281C0.502363 3.14834 0.602184 3.5575 0.793206 3.92399C0.984229 4.29048 1.26055 4.60297 1.59764 4.83374C1.2067 4.82099 0.824385 4.7127 0.482516 4.5179V4.5504C0.482476 5.13319 0.679133 5.69804 1.03912 6.14912C1.3991 6.60019 1.90024 6.90971 2.4575 7.02514C2.09484 7.12575 1.71462 7.14057 1.34555 7.06848C1.50277 7.56993 1.80903 8.00844 2.22146 8.3226C2.63388 8.63677 3.13182 8.81086 3.64556 8.82052C2.77345 9.52231 1.69641 9.90299 0.587686 9.90131C0.391287 9.90137 0.195055 9.88961 0 9.8661C1.12542 10.6079 2.43548 11.0015 3.77345 11C8.30265 11 10.7786 7.15462 10.7786 3.81957C10.7786 3.71122 10.776 3.60179 10.7712 3.49344C11.2529 3.13641 11.6686 2.69429 11.9989 2.18781L12 2.18618Z" fill="black"/>
</g>
<defs>
<clipPath id="clip0">
<rect width="12" height="12" fill="white"/>
</clipPath>
</defs>
</svg>
